<svg width="33" height="29" viewBox="0 0 33 29" fill="none" xmlns="http://www.w3.org/2000/svg">
<path d="M15.4097 3.48552C13.983 4.29387 12.6609 5.04537 11.3388 5.79686C10.2034 6.43959 9.08295 6.31599 8.59245 5.4928C8.0895 4.64737 8.54017 3.68328 9.74525 3.01089C11.2939 2.14074 12.8526 1.28541 14.3863 0.39054C15.3225 -0.153305 16.1591 -0.165666 16.9932 0.585831C18.8332 2.24456 20.9396 3.68575 22.4709 5.58674C23.92 7.3839 24.8337 9.62603 25.8496 11.7347C26.2032 12.4689 26.5816 12.6963 27.3335 12.6666C28.4938 12.6197 29.6591 12.6419 30.8193 12.6617C31.8452 12.679 32.4925 13.2006 32.4975 14.2388C32.505 15.3068 31.8153 15.774 30.7994 15.7814C29.0142 15.7962 27.224 15.8679 25.4487 15.7369C24.8537 15.6924 24.1714 15.2153 23.7556 14.7407C22.8917 13.7518 22.1796 12.6295 21.3131 11.4331C19.9885 12.3082 18.6963 13.161 17.2596 14.1103C18.1709 15.7344 19.0349 17.3041 19.9262 18.8591C20.9471 20.634 20.3396 21.7167 18.2854 21.7217C15.4619 21.7291 12.6409 21.7464 9.81746 21.7118C8.31359 21.692 7.47202 20.4214 8.29616 19.3559C8.6298 18.9258 9.40165 18.6687 9.99424 18.6267C11.4359 18.5229 12.8899 18.5921 14.7548 18.5921C14.1373 18.0136 13.7713 17.6824 13.4178 17.3363C12.7679 16.701 12.0932 16.083 11.4832 15.413C9.95938 13.7395 10.1212 11.8014 11.884 10.3973C13.6543 8.98825 15.437 7.59403 17.287 6.13553C16.667 5.25549 16.0993 4.45703 15.4097 3.48552Z" fill="white"/>
<path d="M26.502 6.63719C24.7167 6.64708 23.2577 5.20836 23.2652 3.45075C23.2726 1.79696 24.7765 0.365659 26.497 0.373076C28.3395 0.382964 29.7139 1.75494 29.6915 3.56199C29.6691 5.31466 28.3096 6.6273 26.502 6.63719Z" fill="white"/>
<path d="M17.9145 23.3725C16.687 24.9867 15.6537 26.3958 14.5631 27.7603C13.9531 28.5242 13.129 28.7739 12.2899 28.141C11.4483 27.5057 11.5006 26.6677 12.0359 25.8544C12.4393 25.2389 12.8377 24.5961 13.3605 24.0943C13.7265 23.7433 14.2893 23.4639 14.7922 23.4071C15.7259 23.2934 16.682 23.3725 17.9145 23.3725Z" fill="white"/>
<path d="M5.91591 13.0668C5.08928 13.0668 4.24771 13.1484 3.43851 13.0297C3.06504 12.9753 2.74882 12.5254 2.40771 12.2535C2.72144 11.9989 3.02769 11.5391 3.35386 11.5242C5.12912 11.4451 6.91185 11.4377 8.68711 11.5094C8.98839 11.5218 9.26725 12.031 9.55607 12.3128C9.25231 12.565 8.97096 12.9976 8.6423 13.0346C7.74346 13.1335 6.8272 13.0668 5.91591 13.0668Z" fill="white"/>
<path d="M3.61028 17.0251C2.78614 17.0251 1.94457 17.1141 1.14035 16.988C0.729526 16.9238 0.378457 16.4763 0 16.2019C0.348579 15.9448 0.684708 15.4801 1.04325 15.4628C2.73136 15.3812 4.42695 15.3763 6.11507 15.4603C6.47361 15.4776 6.80974 15.9819 7.15583 16.2637C6.79978 16.5183 6.46614 16.9361 6.0827 16.9905C5.2735 17.1042 4.43691 17.0251 3.61028 17.0251Z" fill="white"/>
<path d="M4.28006 20.9826C3.45343 20.9826 2.61684 21.0518 1.80017 20.9505C1.43914 20.906 1.12293 20.5154 0.786804 20.283C1.07065 20.0062 1.34204 19.5019 1.63833 19.4871C3.45343 19.3956 5.27351 19.3758 7.0911 19.4351C7.39735 19.445 7.68618 19.9642 7.98247 20.246C7.65879 20.4907 7.35254 20.9085 7.00645 20.948C6.1101 21.0494 5.19135 20.9826 4.28006 20.9826Z" fill="white"/>
</svg>
