<svg width="34" height="35" viewBox="0 0 34 35" fill="none" xmlns="http://www.w3.org/2000/svg">
<path fill-rule="evenodd" clip-rule="evenodd" d="M4 3.4165C1.79086 3.4165 0 5.20736 0 7.4165V30.5832C0 32.7923 1.79086 34.5832 4 34.5832H30C32.2091 34.5832 34 32.7923 34 30.5832V7.4165C34 5.20737 32.2091 3.4165 30 3.4165H4ZM2.1241 16.8764C1.73357 16.4859 1.10041 16.4859 0.709885 16.8764C0.319361 17.2669 0.319361 17.9001 0.709885 18.2906C2.53603 20.1168 5.55106 21.3308 8.91699 22.04V24.6668C8.91699 25.2191 9.36471 25.6668 9.91699 25.6668C10.4693 25.6668 10.917 25.2191 10.917 24.6668V22.3976C14.8229 22.9788 19.1778 22.9788 23.0837 22.3976V24.6668C23.0837 25.2191 23.5314 25.6668 24.0837 25.6668C24.6359 25.6668 25.0837 25.2191 25.0837 24.6668V22.04C28.4496 21.3308 31.4646 20.1168 33.2908 18.2906C33.6813 17.9001 33.6813 17.2669 33.2908 16.8764C32.9002 16.4859 32.2671 16.4859 31.8766 16.8764C30.5131 18.2399 28.103 19.3102 25.0837 19.9929V19.0002C25.0837 18.4479 24.6359 18.0002 24.0837 18.0002C23.5314 18.0002 23.0837 18.4479 23.0837 19.0002V20.3742C19.2022 20.9866 14.7985 20.9866 10.917 20.3742V19.0002C10.917 18.4479 10.4693 18.0002 9.91699 18.0002C9.36471 18.0002 8.91699 18.4479 8.91699 19.0002V19.9929C5.89768 19.3102 3.48759 18.2399 2.1241 16.8764Z" fill="white" fill-opacity="0.5"/>
<path d="M21.25 2C21.8023 2 22.25 1.55228 22.25 1C22.25 0.447715 21.8023 0 21.25 0V2ZM12.75 0C12.1977 0 11.75 0.447715 11.75 1C11.75 1.55228 12.1977 2 12.75 2V0ZM21.25 0L12.75 0V2L21.25 2V0Z" fill="white" fill-opacity="0.5"/>
</svg>
