<svg width="31" height="23" viewBox="0 0 31 23" fill="none" xmlns="http://www.w3.org/2000/svg">
<path d="M15.1563 0.0024032C19.1153 0.0024032 23.0766 -0.00427235 27.0356 0.00462838C29.4111 0.00907874 30.2029 0.781217 30.2051 3.11321C30.2141 8.70954 30.2118 14.3059 30.2051 19.9022C30.2029 22.143 29.3415 22.9952 27.1029 22.9974C19.1445 22.9997 11.1883 23.0019 3.2298 22.9974C0.771381 22.993 0.00649011 22.2409 0.00424703 19.831C-0.00248221 14.2725 -0.000239133 8.71176 0.00424703 3.15326C0.00649011 0.843522 0.852132 0.00462838 3.16251 0.0024032C7.16192 0.000178014 11.1591 0.0024032 15.1563 0.0024032ZM15.006 9.00549C15.3178 8.95654 15.5421 8.93873 15.7574 8.88088C18.0925 8.25115 20.4185 7.59695 22.7603 6.9917C23.4579 6.81146 24.1264 6.60674 24.1488 5.79233C24.1735 4.91115 23.4445 4.66638 22.7356 4.47947C20.3894 3.85864 18.0476 3.22892 15.7013 2.62144C15.3851 2.53911 15.0172 2.47903 14.7121 2.55691C12.155 3.21557 9.59342 3.87199 7.06547 4.63078C6.64601 4.75762 6.10767 5.37399 6.11216 5.76117C6.11665 6.14613 6.66172 6.69575 7.09463 6.86931C8.05691 7.25427 9.0977 7.45009 10.1071 7.71711C11.7647 8.15769 13.4224 8.58938 15.006 9.00549ZM20.8178 9.74647C17.0135 11.5533 13.2474 11.5311 9.51716 9.81991C9.01022 12.5903 9.15154 12.8128 11.5718 13.3935C11.6436 13.4113 11.7176 13.4269 11.7916 13.4425C14.8916 14.0589 17.9153 13.9231 20.8178 12.6503C20.8178 11.7024 20.8178 10.8568 20.8178 9.74647ZM10.3875 20.661C10.3875 19.4727 10.3875 18.3958 10.3875 17.301C8.84423 17.301 7.38399 17.301 5.9372 17.301C5.9372 18.4736 5.9372 19.5529 5.9372 20.661C7.44679 20.661 8.85321 20.661 10.3875 20.661ZM12.8481 20.6276C14.4228 20.6276 15.8561 20.6276 17.341 20.6276C17.341 19.4794 17.341 18.4002 17.341 17.301C15.8 17.301 14.3398 17.301 12.8481 17.301C12.8481 18.4425 12.8481 19.4928 12.8481 20.6276ZM19.8466 17.2654C19.8466 18.4803 19.8466 19.5595 19.8466 20.6209C21.3876 20.6209 22.8209 20.6209 24.2901 20.6209C24.2901 19.4683 24.2901 18.3891 24.2901 17.2654C22.7715 17.2654 21.3382 17.2654 19.8466 17.2654Z" fill="white"/>
</svg>
