<svg width="32" height="31" viewBox="0 0 32 31" fill="none" xmlns="http://www.w3.org/2000/svg">
<path d="M11.9718 26.2834C11.9718 26.2152 11.9614 26.143 11.9738 26.0769C12.2073 24.8172 11.7032 24.0697 10.5978 23.3614C7.5401 21.4017 6.01535 17.2904 6.88516 13.8893C7.87686 10.0133 10.9181 7.31026 14.67 6.7589C21.1554 5.80694 26.7647 11.7438 24.9817 18.3765C24.3412 20.7637 22.897 22.6098 20.7401 23.8343C20.1781 24.1523 19.9509 24.4848 19.986 25.1167C20.0335 25.9736 20.0046 26.8368 19.9963 27.6958C19.9818 29.3437 18.9736 30.3907 17.3125 30.4547C16.4882 30.4877 15.6597 30.4753 14.8333 30.4588C13.0998 30.4216 12.0792 29.4428 11.9821 27.7268C11.9552 27.2457 11.978 26.7645 11.978 26.2813C11.9759 26.2834 11.9738 26.2834 11.9718 26.2834Z" fill="white"/>
<path d="M1.86256 17.2392C1.81917 17.2351 1.54852 17.1938 1.27787 17.1814C0.505166 17.1442 0.0465031 16.7271 0.00311606 15.9817C-0.0444031 15.168 0.455581 14.7179 1.22828 14.6084C1.66422 14.5465 2.11669 14.5444 2.55469 14.5857C3.33152 14.658 3.98853 14.9512 3.96373 15.8722C3.93894 16.7767 3.38731 17.2062 2.50304 17.2372C2.36874 17.2434 2.23032 17.2392 1.86256 17.2392Z" fill="white"/>
<path d="M29.9564 17.2593C29.7188 17.2304 29.3304 17.2386 28.9771 17.1333C28.3718 16.9495 27.8635 16.5262 28.0763 15.8695C28.2292 15.4008 28.6486 14.8845 29.0866 14.6842C29.537 14.4777 30.1506 14.6119 30.694 14.6223C31.5121 14.6388 31.9894 15.0869 31.9997 15.8902C32.0121 16.71 31.4626 17.0941 30.7064 17.2159C30.506 17.2448 30.2994 17.2386 29.9564 17.2593Z" fill="white"/>
<path d="M7.86822 25.2339C7.89095 26.0764 6.41166 27.5508 5.57284 27.5219C4.69684 27.493 3.94479 26.5369 4.39519 25.8162C4.84146 25.1038 5.53978 24.4533 6.27736 24.0507C7.02941 23.6397 7.8455 24.3459 7.86822 25.2339Z" fill="white"/>
<path d="M25.3248 7.83646C24.3311 7.76418 23.7588 6.58507 24.3724 5.7756C24.7381 5.29239 25.1823 4.80918 25.6988 4.51802C26.0521 4.31771 26.6843 4.28674 27.0231 4.47672C27.3599 4.66463 27.6347 5.21392 27.676 5.62898C27.7628 6.49834 26.1905 7.90047 25.3248 7.83646Z" fill="white"/>
<path d="M14.6736 1.81112C14.6695 0.640268 15.155 -0.0102039 16.0083 0.000121063C16.8574 0.010446 17.3326 0.662983 17.345 1.84209C17.3471 2.08163 17.3553 2.3253 17.3347 2.56277C17.2644 3.38464 16.8822 3.94219 15.9938 3.94012C15.155 3.93806 14.7872 3.38877 14.6819 2.63298C14.6426 2.36454 14.6736 2.08576 14.6736 1.81112Z" fill="white"/>
<path d="M25.1303 23.9604C26.2852 23.9584 27.7789 25.4059 27.6777 26.2691C27.6322 26.6511 27.3492 27.1901 27.0372 27.314C26.624 27.475 25.9918 27.4503 25.6116 27.2314C25.0972 26.9381 24.6282 26.4425 24.341 25.9222C24.1447 25.5691 24.1571 24.9661 24.3266 24.5841C24.4753 24.2516 24.9712 24.074 25.1303 23.9604Z" fill="white"/>
<path d="M6.8913 7.85141C5.70126 7.81011 4.30048 6.37907 4.30048 5.55927C4.30048 4.82414 4.71988 4.42353 5.40788 4.30995C6.4471 4.13856 8.1206 5.80294 7.8107 6.80033C7.66194 7.27734 7.09791 7.62633 6.8913 7.85141Z" fill="white"/>
</svg>
