<svg width="34" height="34" viewBox="0 0 34 34" fill="none" xmlns="http://www.w3.org/2000/svg">
<g opacity="0.5">
<path fill-rule="evenodd" clip-rule="evenodd" d="M4.00034 2.4165H8.91733V6.66667C8.91733 7.21895 9.36504 7.66667 9.91733 7.66667C10.4696 7.66667 10.9173 7.21895 10.9173 6.66667V2.4165H23.084V6.66667C23.084 7.21895 23.5317 7.66667 24.084 7.66667C24.6363 7.66667 25.084 7.21895 25.084 6.66667V2.4165H30.0003C32.2095 2.4165 34.0003 4.20737 34.0003 6.4165V29.5832C34.0003 31.7923 32.2095 33.5832 30.0003 33.5832H4.00034C1.7912 33.5832 0.000335693 31.7923 0.000335693 29.5832V6.4165C0.000335693 4.20736 1.7912 2.4165 4.00034 2.4165ZM0.417328 12.3333C0.417328 11.781 0.865043 11.3333 1.41733 11.3333H32.584C33.1363 11.3333 33.584 11.781 33.584 12.3333C33.584 12.8856 33.1363 13.3333 32.584 13.3333H1.41733C0.865043 13.3333 0.417328 12.8856 0.417328 12.3333ZM9.20834 23.6665C10.3819 23.6665 11.3333 22.7151 11.3333 21.5415C11.3333 20.3679 10.3819 19.4165 9.20834 19.4165C8.03474 19.4165 7.08334 20.3679 7.08334 21.5415C7.08334 22.7151 8.03474 23.6665 9.20834 23.6665ZM18.4173 21.5415C18.4173 22.7151 17.4659 23.6665 16.2923 23.6665C15.1187 23.6665 14.1673 22.7151 14.1673 21.5415C14.1673 20.3679 15.1187 19.4165 16.2923 19.4165C17.4659 19.4165 18.4173 20.3679 18.4173 21.5415ZM23.3753 23.6665C24.5489 23.6665 25.5003 22.7151 25.5003 21.5415C25.5003 20.3679 24.5489 19.4165 23.3753 19.4165C22.2017 19.4165 21.2503 20.3679 21.2503 21.5415C21.2503 22.7151 22.2017 23.6665 23.3753 23.6665Z" fill="white"/>
<path d="M10.9173 1C10.9173 0.447715 10.4696 0 9.91733 0C9.36504 0 8.91733 0.447715 8.91733 1H10.9173ZM8.91733 1.66667C8.91733 2.21895 9.36504 2.66667 9.91733 2.66667C10.4696 2.66667 10.9173 2.21895 10.9173 1.66667H8.91733ZM25.084 1C25.084 0.447715 24.6363 0 24.084 0C23.5317 0 23.084 0.447715 23.084 1H25.084ZM23.084 1.66667C23.084 2.21895 23.5317 2.66667 24.084 2.66667C24.6363 2.66667 25.084 2.21895 25.084 1.66667H23.084ZM8.91733 1V1.66667H10.9173V1H8.91733ZM23.084 1V1.66667H25.084V1H23.084Z" fill="white"/>
</g>
</svg>
