<svg width="24" height="23" viewBox="0 0 24 23" fill="none" xmlns="http://www.w3.org/2000/svg">
<mask id="path-1-inside-1_2_56" fill="white">
<path d="M12 0C15.0492 0 20.4229 4.64893 22.8052 6.85894C23.583 7.58044 24 8.59599 24 9.65685V19C24 21.2091 22.2091 23 20 23H15V18.5C15 18.5 15 15.5 12 15.5C9 15.5 9 18.5 9 18.5V23H4C1.79086 23 0 21.2091 0 19V9.65685C0 8.59599 0.417034 7.58044 1.19477 6.85894C3.57705 4.64893 8.95076 0 12 0Z"/>
</mask>
<path d="M9 23V25H11V23H9ZM15 23H13V25H15V23ZM22.8052 6.85894L21.445 8.32518L22.8052 6.85894ZM9 21H4V25H9V21ZM20 21H15V25H20V21ZM12 13.5C10.9 13.5 9.94209 13.7807 9.15622 14.3046C8.38288 14.8202 7.89228 15.4933 7.58615 16.1056C7.28393 16.71 7.14279 17.2902 7.07409 17.7025C7.03894 17.9133 7.0206 18.0934 7.01094 18.2286C7.00609 18.2965 7.00336 18.3541 7.00184 18.3997C7.00108 18.4225 7.00062 18.4424 7.00035 18.4591C7.00022 18.4675 7.00013 18.4751 7.00007 18.482C7.00005 18.4854 7.00003 18.4886 7.00002 18.4916C7.00001 18.4931 7.00001 18.4945 7 18.4959C7 18.4966 7 18.4977 7 18.498C7 18.499 7 18.5 9 18.5C11 18.5 11 18.501 11 18.5019C11 18.5022 11 18.5032 11 18.5038C11 18.505 11 18.5062 11 18.5073C11 18.5096 11 18.5117 10.9999 18.5137C10.9999 18.5176 10.9999 18.5209 10.9998 18.5236C10.9997 18.5291 10.9997 18.5321 10.9996 18.5329C10.9996 18.5346 10.9998 18.5277 11.0008 18.5136C11.0028 18.4847 11.0079 18.4304 11.0197 18.36C11.0447 18.2098 11.0911 18.04 11.1639 17.8944C11.2327 17.7567 11.3046 17.6798 11.375 17.6329C11.4329 17.5943 11.6 17.5 12 17.5V13.5ZM7 18.5V23H11V18.5H7ZM17 23V18.5H13V23H17ZM15 18.5C17 18.5 17 18.499 17 18.498C17 18.4977 17 18.4966 17 18.4959C17 18.4945 17 18.4931 17 18.4916C17 18.4886 17 18.4854 16.9999 18.482C16.9999 18.4751 16.9998 18.4675 16.9996 18.4591C16.9994 18.4424 16.9989 18.4225 16.9982 18.3997C16.9966 18.3541 16.9939 18.2965 16.9891 18.2286C16.9794 18.0934 16.9611 17.9133 16.9259 17.7025C16.8572 17.2902 16.7161 16.71 16.4139 16.1056C16.1077 15.4933 15.6171 14.8202 14.8438 14.3046C14.0579 13.7807 13.1 13.5 12 13.5V17.5C12.4 17.5 12.5671 17.5943 12.625 17.6329C12.6954 17.6798 12.7673 17.7567 12.8361 17.8944C12.9089 18.04 12.9553 18.2098 12.9803 18.36C12.9921 18.4304 12.9972 18.4847 12.9992 18.5136C13.0002 18.5277 13.0004 18.5346 13.0004 18.5329C13.0003 18.5321 13.0003 18.5291 13.0002 18.5236C13.0001 18.5209 13.0001 18.5176 13.0001 18.5137C13 18.5117 13 18.5096 13 18.5073C13 18.5062 13 18.505 13 18.5038C13 18.5032 13 18.5022 13 18.5019C13 18.501 13 18.5 15 18.5ZM2 19V9.65685H-2V19H2ZM2.55498 8.32518C3.72017 7.24424 5.58662 5.59609 7.50652 4.23049C8.46757 3.54691 9.3998 2.96459 10.2331 2.56044C11.1052 2.13747 11.6874 2 12 2V-2C10.788 -2 9.55505 -1.55636 8.48751 -1.03859C7.38117 -0.501998 6.24935 0.216044 5.18804 0.970943C3.0632 2.48232 1.05166 4.26363 -0.165433 5.39271L2.55498 8.32518ZM22 9.65685V19H26V9.65685H22ZM12 2C12.3126 2 12.8948 2.13747 13.7669 2.56044C14.6002 2.96459 15.5324 3.54691 16.4935 4.23049C18.4134 5.59609 20.2798 7.24424 21.445 8.32518L24.1654 5.39271C22.9483 4.26363 20.9368 2.48232 18.812 0.970942C17.7506 0.216044 16.6188 -0.501998 15.5125 -1.03859C14.445 -1.55636 13.212 -2 12 -2V2ZM26 9.65685C26 8.07359 25.3755 6.51523 24.1654 5.39271L21.445 8.32518C21.7905 8.64565 22 9.11839 22 9.65685H26ZM2 9.65685C2 9.11838 2.20952 8.64565 2.55498 8.32518L-0.165433 5.39271C-1.37545 6.51523 -2 8.07359 -2 9.65685H2ZM13 18.5C13 18.5 15 18.5 17 18.5C17 18.5 17 18.5 15 18.5C13 18.5 13 18.5 13 18.5C15 18.5 17 18.5 17 18.5H13ZM4 21C2.89543 21 2 20.1046 2 19H-2C-2 22.3137 0.686291 25 4 25V21ZM9 18.5C7 18.5 7 18.5 7 18.5C9 18.5 11 18.5 11 18.5H7C7 18.5 9 18.5 11 18.5C11 18.5 11 18.5 9 18.5ZM20 25C23.3137 25 26 22.3137 26 19H22C22 20.1046 21.1046 21 20 21V25Z" fill="#95B0DA" mask="url(#path-1-inside-1_2_56)"/>
</svg>
