<svg width="24" height="24" viewBox="0 0 24 24" fill="none" xmlns="http://www.w3.org/2000/svg">
<rect x="1" y="3" width="22" height="20" rx="3" stroke="#95B0DA" stroke-width="2"/>
<path d="M8 1C8 0.447715 7.55228 0 7 0C6.44772 0 6 0.447715 6 1H8ZM6 5C6 5.55228 6.44772 6 7 6C7.55228 6 8 5.55228 8 5H6ZM18 1C18 0.447715 17.5523 0 17 0C16.4477 0 16 0.447715 16 1H18ZM16 5C16 5.55228 16.4477 6 17 6C17.5523 6 18 5.55228 18 5H16ZM1 8C0.447715 8 0 8.44772 0 9C0 9.55229 0.447715 10 1 10V8ZM23 10C23.5523 10 24 9.55229 24 9C24 8.44772 23.5523 8 23 8V10ZM6 1V5H8V1H6ZM16 1V5H18V1H16ZM1 10H23V8H1V10Z" fill="#95B0DA"/>
<circle cx="6.5" cy="15.5" r="1.5" fill="#95B0DA"/>
<circle cx="11.5" cy="15.5" r="1.5" fill="#95B0DA"/>
<circle cx="16.5" cy="15.5" r="1.5" fill="#95B0DA"/>
</svg>
