<svg width="24" height="24" viewBox="0 0 24 24" fill="none" xmlns="http://www.w3.org/2000/svg">
<path d="M15 2C15.5523 2 16 1.55228 16 1C16 0.447715 15.5523 0 15 0V2ZM9 0C8.44772 0 8 0.447715 8 1C8 1.55228 8.44772 2 9 2V0ZM15 0L9 0V2L15 2V0Z" fill="#95B0DA"/>
<rect x="1" y="3" width="22" height="20" rx="3" stroke="#95B0DA" stroke-width="2"/>
<path d="M8 13C8 12.4477 7.55228 12 7 12C6.44772 12 6 12.4477 6 13H8ZM6 17C6 17.5523 6.44772 18 7 18C7.55228 18 8 17.5523 8 17H6ZM18 13C18 12.4477 17.5523 12 17 12C16.4477 12 16 12.4477 16 13H18ZM16 17C16 17.5523 16.4477 18 17 18C17.5523 18 18 17.5523 18 17H16ZM1.70711 11.2929C1.31658 10.9024 0.683417 10.9024 0.292893 11.2929C-0.0976311 11.6834 -0.0976311 12.3166 0.292893 12.7071L1.70711 11.2929ZM23.7071 12.7071C24.0976 12.3166 24.0976 11.6834 23.7071 11.2929C23.3166 10.9024 22.6834 10.9024 22.2929 11.2929L23.7071 12.7071ZM6 13V17H8V13H6ZM16 13V17H18V13H16ZM0.292893 12.7071C1.47701 13.8912 3.30359 14.6998 5.31262 15.2183C7.34624 15.7431 9.68211 16 12 16C14.3179 16 16.6538 15.7431 18.6874 15.2183C20.6964 14.6998 22.523 13.8912 23.7071 12.7071L22.2929 11.2929C21.477 12.1088 20.0536 12.8002 18.1876 13.2817C16.3462 13.7569 14.1821 14 12 14C9.81789 14 7.65376 13.7569 5.81238 13.2817C3.94641 12.8002 2.52299 12.1088 1.70711 11.2929L0.292893 12.7071Z" fill="#95B0DA"/>
</svg>
