<svg width="30" height="25" viewBox="0 0 30 25" fill="none" xmlns="http://www.w3.org/2000/svg">
<path d="M0.00150788 11.7556C0.00150788 8.46684 -0.00311 5.18033 0.00381682 1.89153C0.00612575 0.509913 0.491003 0.0187729 1.85328 0.0118877C4.20147 0.000412472 6.54735 -0.00876772 8.89323 0.0141828C11.5162 0.0394283 13.3749 1.88924 13.3864 4.51936C13.4095 9.10716 13.3887 13.695 13.4003 18.2828C13.4026 18.7326 13.3518 19.3018 13.5942 19.6024C13.9313 20.0201 14.5224 20.4608 15.005 20.4654C15.4252 20.4676 15.947 19.9421 16.2403 19.5244C16.4481 19.226 16.3857 18.7165 16.388 18.3011C16.3973 13.7891 16.388 9.27929 16.395 4.76723C16.3996 1.78596 18.1936 0.0164778 21.2045 0.00959266C23.4742 0.00500257 25.7439 -0.00188258 28.0135 0.0118877C29.2835 0.0210679 29.7799 0.489258 29.7822 1.72858C29.7937 8.41865 29.7937 15.111 29.7822 21.8011C29.7799 22.9945 29.2373 23.4856 27.9766 23.4902C24.7833 23.5017 21.5901 23.4696 18.3991 23.5201C17.942 23.5269 17.3947 23.7863 17.053 24.103C15.8362 25.2322 14.1022 25.3469 12.92 24.1512C12.3613 23.5866 11.8025 23.4787 11.0844 23.4833C8.04585 23.5063 5.00728 23.4971 1.96872 23.4902C0.433279 23.4879 0.00843469 23.0542 0.00612575 21.5004C-0.00311 18.2552 0.00150788 15.0054 0.00150788 11.7556Z" fill="white"/>
</svg>
