<svg width="29" height="23" viewBox="0 0 29 23" fill="none" xmlns="http://www.w3.org/2000/svg">
<path d="M12.4017 19.5959C9.52465 19.5959 6.64549 19.6064 3.76842 19.5938C1.21819 19.5813 0.00656752 18.3584 0.00240388 15.8187C-0.00175976 11.8848 0.000322059 7.95083 0.00240388 4.01688C0.00240388 1.25977 1.19945 0.0306712 4.00574 0.0160391C8.65237 -0.0111348 13.2969 0.00767788 17.9435 0.00767788C19.0178 0.00767788 20.0941 -0.0132251 21.1683 0.0139488C23.5186 0.0745676 24.8385 1.39146 24.851 3.73051C24.8718 7.73344 24.8739 11.7364 24.851 15.7414C24.8364 18.3647 23.5686 19.5896 20.933 19.5959C18.0872 19.6001 15.2455 19.5959 12.4017 19.5959ZM10.5822 6.15108C9.65789 6.17198 9.41431 6.68411 9.41223 7.39272C9.40599 9.02525 9.38725 10.6557 9.41848 12.2882C9.4393 13.3919 10.0992 13.7974 11.0819 13.2707C12.5412 12.4889 13.9756 11.6548 15.3891 10.7895C16.3801 10.1812 16.3489 9.38687 15.3537 8.79949C13.9922 7.99682 12.6245 7.20668 11.2505 6.42282C11.0152 6.28904 10.7467 6.21797 10.5822 6.15108Z" fill="white"/>
<path d="M3.71008 20.9898C4.20972 20.9898 4.57404 20.9898 4.93628 20.9898C9.75985 20.9898 14.5855 20.8664 19.4028 21.0253C23.8163 21.1716 26.5206 19.7816 26.2083 14.2548C26.0126 10.8204 26.1729 7.36725 26.1729 3.78656C27.4033 4.29241 28.0924 5.16825 28.1173 6.30538C28.1944 9.92578 28.2776 13.5545 28.0986 17.1687C27.9529 20.1118 25.2111 22.7853 22.2633 22.8752C17.0983 23.032 11.9291 22.9964 6.76203 22.9902C5.45465 22.9881 4.37418 22.4446 3.71008 20.9898Z" fill="white"/>
</svg>
